<svg class="dz-plan__svg" viewBox="0 0 908 973" aria-hidden="true" preserveAspectRatio="xMidYMid meet"><g><line x1="56" y1="664" x2="150" y2="664" pathLength="1" style="--d:0.000" class="w"/><line x1="624" y1="534" x2="708" y2="534" pathLength="1" style="--d:0.002" class="w"/><line x1="355" y1="725" x2="355" y2="743" pathLength="1" style="--d:0.005" class="w"/><line x1="804" y1="534" x2="843" y2="534" pathLength="1" style="--d:0.007" class="w"/><line x1="51" y1="12" x2="191" y2="12" pathLength="1" style="--d:0.009"/><line x1="51" y1="12" x2="51" y2="76" pathLength="1" style="--d:0.012"/><line x1="45" y1="75" x2="855" y2="75" pathLength="1" style="--d:0.014"/><line x1="45" y1="75" x2="45" y2="957" pathLength="1" style="--d:0.016"/><line x1="48" y1="77" x2="48" y2="954" pathLength="1" style="--d:0.019"/><line x1="47" y1="78" x2="852" y2="78" pathLength="1" style="--d:0.021"/><line x1="56" y1="77" x2="56" y2="954" pathLength="1" style="--d:0.023"/><line x1="47" y1="86" x2="852" y2="86" pathLength="1" style="--d:0.026"/><line x1="57" y1="86" x2="57" y2="223" pathLength="1" style="--d:0.028"/><line x1="56" y1="87" x2="193" y2="87" pathLength="1" style="--d:0.030"/><line x1="190" y1="12" x2="190" y2="76" pathLength="1" style="--d:0.033"/><line x1="130" y1="102" x2="130" y2="130" pathLength="1" style="--d:0.035"/><line x1="46" y1="162" x2="46" y2="218" pathLength="1" style="--d:0.037"/><line x1="50" y1="160" x2="50" y2="221" pathLength="1" style="--d:0.039"/><line x1="192" y1="77" x2="192" y2="234" pathLength="1" style="--d:0.042"/><line x1="201" y1="77" x2="201" y2="234" pathLength="1" style="--d:0.044"/><line x1="191" y1="86" x2="191" y2="223" pathLength="1" style="--d:0.046"/><line x1="187" y1="92" x2="187" y2="233" pathLength="1" style="--d:0.049"/><line x1="200" y1="87" x2="554" y2="87" pathLength="1" style="--d:0.051"/><line x1="202" y1="86" x2="202" y2="234" pathLength="1" style="--d:0.053"/><line x1="44" y1="219" x2="59" y2="219" pathLength="1" style="--d:0.056"/><line x1="45" y1="222" x2="203" y2="222" pathLength="1" style="--d:0.058"/><line x1="53" y1="221" x2="193" y2="221" pathLength="1" style="--d:0.060"/><line x1="61" y1="219" x2="188" y2="219" pathLength="1" style="--d:0.063"/><line x1="42" y1="232" x2="203" y2="232" pathLength="1" style="--d:0.065"/><line x1="45" y1="231" x2="203" y2="231" pathLength="1" style="--d:0.067"/><line x1="46" y1="235" x2="46" y2="291" pathLength="1" style="--d:0.070"/><line x1="57" y1="230" x2="57" y2="368" pathLength="1" style="--d:0.072"/><line x1="50" y1="235" x2="50" y2="295" pathLength="1" style="--d:0.074"/><line x1="63" y1="238" x2="119" y2="238" pathLength="1" style="--d:0.077"/><line x1="56" y1="243" x2="107" y2="243" pathLength="1" style="--d:0.079"/><line x1="81" y1="230" x2="81" y2="245" pathLength="1" style="--d:0.081"/><line x1="69" y1="244" x2="93" y2="244" pathLength="1" style="--d:0.084"/><line x1="80" y1="243" x2="80" y2="355" pathLength="1" style="--d:0.086"/><line x1="82" y1="243" x2="82" y2="333" pathLength="1" style="--d:0.088"/><line x1="69" y1="251" x2="69" y2="284" pathLength="1" style="--d:0.091"/><line x1="123" y1="219" x2="123" y2="233" pathLength="1" style="--d:0.093"/><line x1="242" y1="149" x2="242" y2="304" pathLength="1" style="--d:0.095"/><line x1="127" y1="220" x2="180" y2="220" pathLength="1" style="--d:0.098"/><line x1="123" y1="223" x2="177" y2="223" pathLength="1" style="--d:0.100"/><line x1="269" y1="138" x2="306" y2="138" pathLength="1" style="--d:0.102"/><line x1="104" y1="243" x2="104" y2="355" pathLength="1" style="--d:0.104"/><line x1="136" y1="224" x2="164" y2="224" pathLength="1" style="--d:0.107"/><line x1="106" y1="243" x2="106" y2="355" pathLength="1" style="--d:0.109"/><line x1="264" y1="149" x2="264" y2="305" pathLength="1" style="--d:0.111"/><line x1="263" y1="150" x2="311" y2="150" pathLength="1" style="--d:0.114"/><line x1="265" y1="149" x2="265" y2="172" pathLength="1" style="--d:0.116"/><line x1="98" y1="252" x2="98" y2="287" pathLength="1" style="--d:0.118"/><line x1="93" y1="255" x2="93" y2="282" pathLength="1" style="--d:0.121"/><line x1="114" y1="243" x2="114" y2="307" pathLength="1" style="--d:0.123"/><line x1="99" y1="252" x2="99" y2="279" pathLength="1" style="--d:0.125"/><line x1="273" y1="149" x2="273" y2="305" pathLength="1" style="--d:0.128"/><line x1="102" y1="252" x2="102" y2="277" pathLength="1" style="--d:0.130"/><line x1="263" y1="158" x2="301" y2="158" pathLength="1" style="--d:0.132"/><line x1="101" y1="256" x2="101" y2="271" pathLength="1" style="--d:0.135"/><line x1="69" y1="283" x2="94" y2="283" pathLength="1" style="--d:0.137"/><line x1="118" y1="255" x2="118" y2="273" pathLength="1" style="--d:0.139"/><line x1="62" y1="289" x2="120" y2="289" pathLength="1" style="--d:0.142"/><line x1="200" y1="208" x2="262" y2="208" pathLength="1" style="--d:0.144"/><line x1="185" y1="219" x2="185" y2="233" pathLength="1" style="--d:0.146"/><line x1="310" y1="149" x2="310" y2="305" pathLength="1" style="--d:0.149"/><line x1="301" y1="158" x2="301" y2="295" pathLength="1" style="--d:0.151"/><line x1="193" y1="230" x2="193" y2="290" pathLength="1" style="--d:0.153"/><line x1="195" y1="230" x2="195" y2="258" pathLength="1" style="--d:0.156"/><line x1="196" y1="230" x2="196" y2="346" pathLength="1" style="--d:0.158"/><line x1="197" y1="230" x2="197" y2="264" pathLength="1" style="--d:0.160"/><line x1="64" y1="311" x2="110" y2="311" pathLength="1" style="--d:0.163"/><line x1="65" y1="311" x2="65" y2="356" pathLength="1" style="--d:0.165"/><line x1="260" y1="222" x2="274" y2="222" pathLength="1" style="--d:0.167"/><line x1="114" y1="313" x2="114" y2="355" pathLength="1" style="--d:0.169"/><line x1="195" y1="265" x2="195" y2="290" pathLength="1" style="--d:0.172"/><line x1="197" y1="265" x2="197" y2="291" pathLength="1" style="--d:0.174"/><line x1="82" y1="334" x2="82" y2="355" pathLength="1" style="--d:0.176"/><line x1="112" y1="318" x2="112" y2="360" pathLength="1" style="--d:0.179"/><line x1="56" y1="354" x2="83" y2="354" pathLength="1" style="--d:0.181"/><line x1="400" y1="152" x2="517" y2="152" pathLength="1" style="--d:0.183"/><line x1="400" y1="152" x2="400" y2="204" pathLength="1" style="--d:0.186"/><line x1="492" y1="102" x2="548" y2="102" pathLength="1" style="--d:0.188"/><line x1="68" y1="358" x2="87" y2="358" pathLength="1" style="--d:0.190"/><line x1="71" y1="359" x2="113" y2="359" pathLength="1" style="--d:0.193"/><line x1="53" y1="376" x2="128" y2="376" pathLength="1" style="--d:0.195"/><line x1="63" y1="370" x2="129" y2="370" pathLength="1" style="--d:0.197"/><line x1="553" y1="77" x2="553" y2="136" pathLength="1" style="--d:0.200"/><line x1="202" y1="288" x2="202" y2="502" pathLength="1" style="--d:0.202"/><line x1="57" y1="375" x2="57" y2="476" pathLength="1" style="--d:0.204"/><line x1="200" y1="290" x2="200" y2="485" pathLength="1" style="--d:0.207"/><line x1="201" y1="290" x2="201" y2="598" pathLength="1" style="--d:0.209"/><line x1="88" y1="358" x2="113" y2="358" pathLength="1" style="--d:0.211"/><line x1="12" y1="406" x2="91" y2="406" pathLength="1" style="--d:0.214"/><line x1="561" y1="77" x2="561" y2="136" pathLength="1" style="--d:0.216"/><line x1="562" y1="77" x2="562" y2="330" pathLength="1" style="--d:0.218"/><line x1="552" y1="86" x2="552" y2="136" pathLength="1" style="--d:0.221"/><line x1="452" y1="147" x2="522" y2="147" pathLength="1" style="--d:0.223"/><line x1="561" y1="87" x2="843" y2="87" pathLength="1" style="--d:0.225"/><line x1="563" y1="86" x2="563" y2="131" pathLength="1" style="--d:0.228"/><line x1="55" y1="394" x2="55" y2="419" pathLength="1" style="--d:0.230"/><line x1="126" y1="367" x2="194" y2="367" pathLength="1" style="--d:0.232"/><line x1="263" y1="294" x2="302" y2="294" pathLength="1" style="--d:0.234"/><line x1="561" y1="123" x2="843" y2="123" pathLength="1" style="--d:0.237"/><line x1="516" y1="152" x2="516" y2="307" pathLength="1" style="--d:0.239"/><line x1="191" y1="347" x2="191" y2="365" pathLength="1" style="--d:0.241"/><line x1="263" y1="304" x2="311" y2="304" pathLength="1" style="--d:0.244"/><line x1="192" y1="347" x2="192" y2="486" pathLength="1" style="--d:0.246"/><line x1="561" y1="129" x2="600" y2="129" pathLength="1" style="--d:0.248"/><line x1="413" y1="220" x2="413" y2="307" pathLength="1" style="--d:0.251"/><line x1="571" y1="128" x2="630" y2="128" pathLength="1" style="--d:0.253"/><line x1="313" y1="288" x2="313" y2="307" pathLength="1" style="--d:0.255"/><line x1="406" y1="242" x2="443" y2="242" pathLength="1" style="--d:0.258"/><line x1="563" y1="149" x2="563" y2="584" pathLength="1" style="--d:0.260"/><line x1="191" y1="376" x2="191" y2="474" pathLength="1" style="--d:0.262"/><line x1="608" y1="129" x2="694" y2="129" pathLength="1" style="--d:0.265"/><line x1="604" y1="135" x2="604" y2="453" pathLength="1" style="--d:0.267"/><line x1="47" y1="475" x2="127" y2="475" pathLength="1" style="--d:0.269"/><line x1="56" y1="474" x2="127" y2="474" pathLength="1" style="--d:0.272"/><line x1="47" y1="483" x2="63" y2="483" pathLength="1" style="--d:0.274"/><line x1="637" y1="131" x2="699" y2="131" pathLength="1" style="--d:0.276"/><line x1="636" y1="132" x2="699" y2="132" pathLength="1" style="--d:0.279"/><line x1="62" y1="479" x2="129" y2="479" pathLength="1" style="--d:0.281"/><line x1="57" y1="483" x2="57" y2="584" pathLength="1" style="--d:0.283"/><line x1="264" y1="365" x2="564" y2="365" pathLength="1" style="--d:0.286"/><line x1="264" y1="365" x2="264" y2="594" pathLength="1" style="--d:0.288"/><line x1="263" y1="366" x2="564" y2="366" pathLength="1" style="--d:0.290"/><line x1="263" y1="366" x2="263" y2="593" pathLength="1" style="--d:0.292"/><line x1="452" y1="255" x2="505" y2="255" pathLength="1" style="--d:0.295"/><line x1="273" y1="365" x2="273" y2="594" pathLength="1" style="--d:0.297"/><line x1="263" y1="375" x2="564" y2="375" pathLength="1" style="--d:0.299"/><line x1="287" y1="371" x2="382" y2="371" pathLength="1" style="--d:0.302"/><line x1="276" y1="378" x2="276" y2="581" pathLength="1" style="--d:0.304"/><line x1="284" y1="374" x2="386" y2="374" pathLength="1" style="--d:0.306"/><line x1="630" y1="168" x2="702" y2="168" pathLength="1" style="--d:0.309"/><line x1="702" y1="129" x2="787" y2="129" pathLength="1" style="--d:0.311"/><line x1="284" y1="380" x2="482" y2="380" pathLength="1" style="--d:0.313"/><line x1="706" y1="131" x2="768" y2="131" pathLength="1" style="--d:0.316"/><line x1="705" y1="132" x2="768" y2="132" pathLength="1" style="--d:0.318"/><line x1="128" y1="482" x2="189" y2="482" pathLength="1" style="--d:0.320"/><line x1="460" y1="293" x2="498" y2="293" pathLength="1" style="--d:0.323"/><line x1="603" y1="213" x2="603" y2="234" pathLength="1" style="--d:0.325"/><line x1="460" y1="306" x2="499" y2="306" pathLength="1" style="--d:0.327"/><line x1="842" y1="77" x2="842" y2="454" pathLength="1" style="--d:0.330"/><line x1="67" y1="546" x2="113" y2="546" pathLength="1" style="--d:0.332"/><line x1="854" y1="75" x2="854" y2="596" pathLength="1" style="--d:0.334"/><line x1="851" y1="77" x2="851" y2="593" pathLength="1" style="--d:0.337"/><line x1="841" y1="86" x2="841" y2="131" pathLength="1" style="--d:0.339"/><line x1="775" y1="127" x2="833" y2="127" pathLength="1" style="--d:0.341"/><line x1="774" y1="128" x2="834" y2="128" pathLength="1" style="--d:0.344"/><line x1="384" y1="371" x2="479" y2="371" pathLength="1" style="--d:0.346"/><line x1="381" y1="376" x2="482" y2="376" pathLength="1" style="--d:0.348"/><line x1="380" y1="378" x2="482" y2="378" pathLength="1" style="--d:0.351"/><line x1="796" y1="129" x2="843" y2="129" pathLength="1" style="--d:0.353"/><line x1="701" y1="187" x2="701" y2="207" pathLength="1" style="--d:0.355"/><line x1="47" y1="583" x2="203" y2="583" pathLength="1" style="--d:0.357"/><line x1="56" y1="582" x2="193" y2="582" pathLength="1" style="--d:0.360"/><line x1="46" y1="588" x2="46" y2="615" pathLength="1" style="--d:0.362"/><line x1="42" y1="592" x2="42" y2="617" pathLength="1" style="--d:0.364"/><line x1="45" y1="591" x2="203" y2="591" pathLength="1" style="--d:0.367"/><line x1="42" y1="593" x2="203" y2="593" pathLength="1" style="--d:0.369"/><line x1="272" y1="455" x2="272" y2="548" pathLength="1" style="--d:0.371"/><line x1="44" y1="594" x2="82" y2="594" pathLength="1" style="--d:0.374"/><line x1="50" y1="591" x2="50" y2="618" pathLength="1" style="--d:0.376"/><line x1="45" y1="595" x2="59" y2="595" pathLength="1" style="--d:0.378"/><line x1="274" y1="458" x2="274" y2="544" pathLength="1" style="--d:0.381"/><line x1="202" y1="504" x2="202" y2="595" pathLength="1" style="--d:0.383"/><line x1="57" y1="591" x2="57" y2="656" pathLength="1" style="--d:0.385"/><line x1="603" y1="265" x2="603" y2="286" pathLength="1" style="--d:0.388"/><line x1="701" y1="208" x2="701" y2="306" pathLength="1" style="--d:0.390"/><line x1="56" y1="599" x2="82" y2="599" pathLength="1" style="--d:0.392"/><line x1="790" y1="159" x2="843" y2="159" pathLength="1" style="--d:0.395"/><line x1="790" y1="159" x2="790" y2="458" pathLength="1" style="--d:0.397"/><line x1="56" y1="604" x2="82" y2="604" pathLength="1" style="--d:0.399"/><line x1="841" y1="134" x2="841" y2="454" pathLength="1" style="--d:0.402"/><line x1="81" y1="591" x2="81" y2="656" pathLength="1" style="--d:0.404"/><line x1="45" y1="614" x2="59" y2="614" pathLength="1" style="--d:0.406"/><line x1="42" y1="616" x2="82" y2="616" pathLength="1" style="--d:0.409"/><line x1="56" y1="611" x2="82" y2="611" pathLength="1" style="--d:0.411"/><line x1="728" y1="208" x2="728" y2="229" pathLength="1" style="--d:0.413"/><line x1="481" y1="365" x2="481" y2="381" pathLength="1" style="--d:0.416"/><line x1="191" y1="539" x2="191" y2="584" pathLength="1" style="--d:0.418"/><line x1="192" y1="539" x2="192" y2="595" pathLength="1" style="--d:0.420"/><line x1="200" y1="539" x2="200" y2="595" pathLength="1" style="--d:0.422"/><line x1="87" y1="611" x2="87" y2="656" pathLength="1" style="--d:0.425"/><line x1="90" y1="610" x2="107" y2="610" pathLength="1" style="--d:0.427"/><line x1="82" y1="617" x2="82" y2="656" pathLength="1" style="--d:0.429"/><line x1="86" y1="617" x2="86" y2="656" pathLength="1" style="--d:0.432"/><line x1="216" y1="540" x2="216" y2="583" pathLength="1" style="--d:0.434"/><line x1="102" y1="610" x2="102" y2="642" pathLength="1" style="--d:0.436"/><line x1="562" y1="337" x2="562" y2="594" pathLength="1" style="--d:0.439"/><line x1="106" y1="614" x2="106" y2="639" pathLength="1" style="--d:0.441"/><line x1="60" y1="644" x2="83" y2="644" pathLength="1" style="--d:0.443"/><line x1="56" y1="649" x2="83" y2="649" pathLength="1" style="--d:0.446"/><line x1="47" y1="655" x2="83" y2="655" pathLength="1" style="--d:0.448"/><line x1="56" y1="654" x2="83" y2="654" pathLength="1" style="--d:0.450"/><line x1="41" y1="663" x2="41" y2="867" pathLength="1" style="--d:0.453"/><line x1="49" y1="663" x2="49" y2="768" pathLength="1" style="--d:0.455"/><line x1="86" y1="641" x2="114" y2="641" pathLength="1" style="--d:0.457"/><line x1="51" y1="666" x2="51" y2="865" pathLength="1" style="--d:0.460"/><line x1="553" y1="365" x2="553" y2="594" pathLength="1" style="--d:0.462"/><line x1="57" y1="663" x2="57" y2="945" pathLength="1" style="--d:0.464"/><line x1="561" y1="365" x2="561" y2="594" pathLength="1" style="--d:0.467"/><line x1="263" y1="547" x2="278" y2="547" pathLength="1" style="--d:0.469"/><line x1="86" y1="655" x2="193" y2="655" pathLength="1" style="--d:0.471"/><line x1="160" y1="613" x2="160" y2="628" pathLength="1" style="--d:0.474"/><line x1="198" y1="591" x2="198" y2="621" pathLength="1" style="--d:0.476"/><line x1="548" y1="383" x2="548" y2="512" pathLength="1" style="--d:0.478"/><line x1="630" y1="335" x2="703" y2="335" pathLength="1" style="--d:0.481"/><line x1="554" y1="383" x2="554" y2="449" pathLength="1" style="--d:0.483"/><line x1="174" y1="613" x2="174" y2="628" pathLength="1" style="--d:0.485"/><line x1="160" y1="627" x2="175" y2="627" pathLength="1" style="--d:0.488"/><line x1="198" y1="621" x2="198" y2="643" pathLength="1" style="--d:0.490"/><line x1="263" y1="583" x2="852" y2="583" pathLength="1" style="--d:0.492"/><line x1="197" y1="623" x2="197" y2="644" pathLength="1" style="--d:0.494"/><line x1="276" y1="580" x2="551" y2="580" pathLength="1" style="--d:0.497"/><line x1="263" y1="592" x2="852" y2="592" pathLength="1" style="--d:0.499"/><line x1="264" y1="593" x2="626" y2="593" pathLength="1" style="--d:0.501"/><line x1="202" y1="642" x2="202" y2="656" pathLength="1" style="--d:0.504"/><line x1="316" y1="578" x2="446" y2="578" pathLength="1" style="--d:0.506"/><line x1="304" y1="591" x2="304" y2="703" pathLength="1" style="--d:0.508"/><line x1="251" y1="623" x2="287" y2="623" pathLength="1" style="--d:0.511"/><line x1="320" y1="582" x2="443" y2="582" pathLength="1" style="--d:0.513"/><line x1="549" y1="445" x2="549" y2="512" pathLength="1" style="--d:0.515"/><line x1="552" y1="444" x2="552" y2="512" pathLength="1" style="--d:0.518"/><line x1="316" y1="591" x2="316" y2="703" pathLength="1" style="--d:0.520"/><line x1="662" y1="387" x2="696" y2="387" pathLength="1" style="--d:0.522"/><line x1="661" y1="388" x2="661" y2="444" pathLength="1" style="--d:0.525"/><line x1="42" y1="762" x2="42" y2="868" pathLength="1" style="--d:0.527"/><line x1="43" y1="766" x2="43" y2="868" pathLength="1" style="--d:0.529"/><line x1="796" y1="331" x2="833" y2="331" pathLength="1" style="--d:0.532"/><line x1="264" y1="654" x2="264" y2="740" pathLength="1" style="--d:0.534"/><line x1="625" y1="442" x2="708" y2="442" pathLength="1" style="--d:0.536"/><line x1="142" y1="732" x2="179" y2="732" pathLength="1" style="--d:0.539"/><line x1="624" y1="443" x2="708" y2="443" pathLength="1" style="--d:0.541"/><line x1="273" y1="654" x2="273" y2="738" pathLength="1" style="--d:0.543"/><line x1="274" y1="654" x2="274" y2="728" pathLength="1" style="--d:0.546"/><line x1="625" y1="452" x2="625" y2="585" pathLength="1" style="--d:0.548"/><line x1="624" y1="453" x2="708" y2="453" pathLength="1" style="--d:0.550"/><line x1="634" y1="452" x2="634" y2="531" pathLength="1" style="--d:0.553"/><line x1="635" y1="456" x2="635" y2="531" pathLength="1" style="--d:0.555"/><line x1="634" y1="457" x2="708" y2="457" pathLength="1" style="--d:0.557"/><line x1="548" y1="511" x2="564" y2="511" pathLength="1" style="--d:0.559"/><line x1="107" y1="788" x2="122" y2="788" pathLength="1" style="--d:0.562"/><line x1="123" y1="788" x2="167" y2="788" pathLength="1" style="--d:0.564"/><line x1="522" y1="551" x2="602" y2="551" pathLength="1" style="--d:0.566"/><line x1="456" y1="591" x2="456" y2="656" pathLength="1" style="--d:0.569"/><line x1="273" y1="702" x2="334" y2="702" pathLength="1" style="--d:0.571"/><line x1="458" y1="591" x2="458" y2="656" pathLength="1" style="--d:0.573"/><line x1="557" y1="539" x2="557" y2="564" pathLength="1" style="--d:0.576"/><line x1="498" y1="579" x2="552" y2="579" pathLength="1" style="--d:0.578"/><line x1="496" y1="582" x2="554" y2="582" pathLength="1" style="--d:0.580"/><line x1="499" y1="581" x2="551" y2="581" pathLength="1" style="--d:0.583"/><line x1="265" y1="724" x2="265" y2="740" pathLength="1" style="--d:0.585"/><line x1="720" y1="452" x2="720" y2="535" pathLength="1" style="--d:0.587"/><line x1="263" y1="727" x2="635" y2="727" pathLength="1" style="--d:0.590"/><line x1="558" y1="550" x2="558" y2="564" pathLength="1" style="--d:0.592"/><line x1="273" y1="726" x2="446" y2="726" pathLength="1" style="--d:0.594"/><line x1="174" y1="788" x2="216" y2="788" pathLength="1" style="--d:0.597"/><line x1="263" y1="736" x2="635" y2="736" pathLength="1" style="--d:0.599"/><line x1="263" y1="737" x2="338" y2="737" pathLength="1" style="--d:0.601"/><line x1="333" y1="702" x2="333" y2="728" pathLength="1" style="--d:0.604"/><line x1="268" y1="741" x2="268" y2="940" pathLength="1" style="--d:0.606"/><line x1="634" y1="530" x2="708" y2="530" pathLength="1" style="--d:0.608"/><line x1="300" y1="736" x2="300" y2="801" pathLength="1" style="--d:0.611"/><line x1="561" y1="582" x2="843" y2="582" pathLength="1" style="--d:0.613"/><line x1="444" y1="653" x2="444" y2="729" pathLength="1" style="--d:0.615"/><line x1="445" y1="653" x2="445" y2="737" pathLength="1" style="--d:0.617"/><line x1="443" y1="655" x2="459" y2="655" pathLength="1" style="--d:0.620"/><line x1="17" y1="912" x2="96" y2="912" pathLength="1" style="--d:0.622"/><line x1="453" y1="653" x2="453" y2="737" pathLength="1" style="--d:0.624"/><line x1="454" y1="653" x2="454" y2="729" pathLength="1" style="--d:0.627"/><line x1="789" y1="453" x2="843" y2="453" pathLength="1" style="--d:0.629"/><line x1="337" y1="726" x2="337" y2="800" pathLength="1" style="--d:0.631"/><line x1="336" y1="728" x2="358" y2="728" pathLength="1" style="--d:0.634"/><line x1="789" y1="457" x2="843" y2="457" pathLength="1" style="--d:0.636"/><line x1="345" y1="726" x2="345" y2="954" pathLength="1" style="--d:0.638"/><line x1="22" y1="921" x2="38" y2="921" pathLength="1" style="--d:0.641"/><line x1="336" y1="735" x2="336" y2="801" pathLength="1" style="--d:0.643"/><line x1="335" y1="736" x2="335" y2="801" pathLength="1" style="--d:0.645"/><line x1="805" y1="456" x2="805" y2="584" pathLength="1" style="--d:0.648"/><line x1="455" y1="670" x2="455" y2="694" pathLength="1" style="--d:0.650"/><line x1="346" y1="736" x2="346" y2="953" pathLength="1" style="--d:0.652"/><line x1="345" y1="737" x2="436" y2="737" pathLength="1" style="--d:0.655"/><line x1="348" y1="736" x2="348" y2="957" pathLength="1" style="--d:0.657"/><line x1="38" y1="922" x2="38" y2="946" pathLength="1" style="--d:0.659"/><line x1="345" y1="739" x2="624" y2="739" pathLength="1" style="--d:0.662"/><line x1="353" y1="735" x2="430" y2="735" pathLength="1" style="--d:0.664"/><line x1="357" y1="734" x2="357" y2="775" pathLength="1" style="--d:0.666"/><line x1="352" y1="742" x2="431" y2="742" pathLength="1" style="--d:0.669"/><line x1="354" y1="741" x2="428" y2="741" pathLength="1" style="--d:0.671"/><line x1="22" y1="945" x2="39" y2="945" pathLength="1" style="--d:0.673"/><line x1="842" y1="456" x2="842" y2="531" pathLength="1" style="--d:0.676"/><line x1="634" y1="582" x2="634" y2="846" pathLength="1" style="--d:0.678"/><line x1="277" y1="798" x2="338" y2="798" pathLength="1" style="--d:0.680"/><line x1="276" y1="800" x2="338" y2="800" pathLength="1" style="--d:0.682"/><line x1="625" y1="591" x2="625" y2="729" pathLength="1" style="--d:0.685"/><line x1="47" y1="944" x2="347" y2="944" pathLength="1" style="--d:0.687"/><line x1="276" y1="809" x2="338" y2="809" pathLength="1" style="--d:0.689"/><line x1="280" y1="808" x2="280" y2="945" pathLength="1" style="--d:0.692"/><line x1="637" y1="594" x2="855" y2="594" pathLength="1" style="--d:0.694"/><line x1="637" y1="594" x2="637" y2="848" pathLength="1" style="--d:0.696"/><line x1="636" y1="595" x2="854" y2="595" pathLength="1" style="--d:0.699"/><line x1="636" y1="595" x2="636" y2="848" pathLength="1" style="--d:0.701"/><line x1="56" y1="943" x2="338" y2="943" pathLength="1" style="--d:0.703"/><line x1="882" y1="452" x2="882" y2="583" pathLength="1" style="--d:0.706"/><line x1="47" y1="953" x2="346" y2="953" pathLength="1" style="--d:0.708"/><line x1="426" y1="726" x2="426" y2="756" pathLength="1" style="--d:0.710"/><line x1="428" y1="725" x2="428" y2="740" pathLength="1" style="--d:0.713"/><line x1="45" y1="955" x2="349" y2="955" pathLength="1" style="--d:0.715"/><line x1="427" y1="726" x2="427" y2="740" pathLength="1" style="--d:0.717"/><line x1="53" y1="956" x2="349" y2="956" pathLength="1" style="--d:0.720"/><line x1="60" y1="952" x2="117" y2="952" pathLength="1" style="--d:0.722"/><line x1="300" y1="808" x2="300" y2="945" pathLength="1" style="--d:0.724"/><line x1="502" y1="691" x2="589" y2="691" pathLength="1" style="--d:0.727"/><line x1="309" y1="812" x2="326" y2="812" pathLength="1" style="--d:0.729"/><line x1="453" y1="726" x2="626" y2="726" pathLength="1" style="--d:0.731"/><line x1="357" y1="785" x2="357" y2="813" pathLength="1" style="--d:0.734"/><line x1="336" y1="808" x2="336" y2="946" pathLength="1" style="--d:0.736"/><line x1="337" y1="808" x2="337" y2="954" pathLength="1" style="--d:0.738"/><line x1="805" y1="529" x2="843" y2="529" pathLength="1" style="--d:0.741"/><line x1="804" y1="530" x2="843" y2="530" pathLength="1" style="--d:0.743"/><line x1="348" y1="824" x2="624" y2="824" pathLength="1" style="--d:0.745"/><line x1="841" y1="533" x2="841" y2="584" pathLength="1" style="--d:0.748"/><line x1="842" y1="534" x2="842" y2="593" pathLength="1" style="--d:0.750"/><line x1="588" y1="691" x2="588" y2="728" pathLength="1" style="--d:0.752"/><line x1="348" y1="847" x2="638" y2="847" pathLength="1" style="--d:0.754"/><line x1="378" y1="864" x2="449" y2="864" pathLength="1" style="--d:0.757"/><line x1="377" y1="865" x2="450" y2="865" pathLength="1" style="--d:0.759"/><line x1="377" y1="865" x2="377" y2="960" pathLength="1" style="--d:0.761"/><line x1="625" y1="734" x2="625" y2="846" pathLength="1" style="--d:0.764"/><line x1="623" y1="738" x2="623" y2="848" pathLength="1" style="--d:0.766"/><line x1="377" y1="888" x2="450" y2="888" pathLength="1" style="--d:0.768"/><line x1="449" y1="865" x2="449" y2="960" pathLength="1" style="--d:0.771"/><line x1="377" y1="912" x2="450" y2="912" pathLength="1" style="--d:0.773"/><line x1="377" y1="936" x2="450" y2="936" pathLength="1" style="--d:0.775"/><line x1="378" y1="960" x2="449" y2="960" pathLength="1" style="--d:0.778"/></g></svg>